ffmpeg version 4.4.2-0ubuntu0.22.04.1 Copyright (c) 2000-2021 the FFmpeg developers
  built with gcc 11 (Ubuntu 11.2.0-19ubuntu1)
  configuration: --prefix=/usr --extra-version=0ubuntu0.22.04.1 --toolchain=hardened --libdir=/usr/lib/x86_64-linux-gnu --incdir=/usr/include/x86_64-linux-gnu --arch=amd64 --enable-gpl --disable-stripping --enable-gnutls --enable-ladspa --enable-libaom --enable-libass --enable-libbluray --enable-libbs2b --enable-libcaca --enable-libcdio --enable-libcodec2 --enable-libdav1d --enable-libflite --enable-libfontconfig --enable-libfreetype --enable-libfribidi --enable-libgme --enable-libgsm --enable-libjack --enable-libmp3lame --enable-libmysofa --enable-libopenjpeg --enable-libopenmpt --enable-libopus --enable-libpulse --enable-librabbitmq --enable-librubberband --enable-libshine --enable-libsnappy --enable-libsoxr --enable-libspeex --enable-libsrt --enable-libssh --enable-libtheora --enable-libtwolame --enable-libvidstab --enable-libvorbis --enable-libvpx --enable-libwebp --enable-libx265 --enable-libxml2 --enable-libxvid --enable-libzimg --enable-libzmq --enable-libzvbi --enable-lv2 --enable-omx --enable-openal --enable-opencl --enable-opengl --enable-sdl2 --enable-pocketsphinx --enable-librsvg --enable-libmfx --enable-libdc1394 --enable-libdrm --enable-libiec61883 --enable-chromaprint --enable-frei0r --enable-libx264 --enable-shared
  libavutil      56. 70.100 / 56. 70.100
  libavcodec     58.134.100 / 58.134.100
  libavformat    58. 76.100 / 58. 76.100
  libavdevice    58. 13.100 / 58. 13.100
  libavfilter     7.110.100 /  7.110.100
  libswscale      5.  9.100 /  5.  9.100
  libswresample   3.  9.100 /  3.  9.100
  libpostproc    55.  9.100 / 55.  9.100
Input #0, flv, from '/storage/32426326/20250625/32426326-20250625-140122-382.flv':
  Metadata:
    profile         : 
    cdn_ip          : 192.168.252.4
    displayWidth    : 2560
    Rawdata         : 
    fps             : 60
    displayHeight   : 1440
    level           : 
    encoder         : obs-output module (libobs version 31.0.2)
    Title           : 技术主播没有GG
    Artist          : 蓝音BuBuLine (32426326)
    Comment         : mikufans直播间 32426326 的直播录像
                    : 主播名: 蓝音BuBuLine
                    : 直播标题: 技术主播没有GG
                    : 直播分区: 单机游戏·主机游戏
                    : 录制时间: 2025-06-25T14:01:22.5043719+00:00
                    : 直播服务器:
                    : d1--ov-gotcha07.bilivideo.com [156.59.188.244]
                    : 
                    : 使用 mikufans录播姬 录制 https://rec.danmuji.org
                    : 录播姬版本: 2.17.0
    RecordedBy      : BililiveRecorder mikufans录播姬
    RecordedFrom    : d1--ov-gotcha07.bilivideo.com
    StreamServers   : d1--ov-gotcha07.bilivideo.com [156.59.188.244]
    RecorderVersion : 2.17.0+Branch.tags-v2.17.0.Sha.79d60d3b69038634787f3d53faa1124d513cf64a
    StartTime       : Wed, 25 Jun 2025 14:01:22 +0000
    RoomId          : 32426326
    ShortId         : 0
    Name            : 蓝音BuBuLine
    StreamTitle     : 技术主播没有GG
    AreaNameParent  : 单机游戏
    AreaNameChild   : 主机游戏
  Duration: 06:26:48.06, start: 0.035000, bitrate: 8045 kb/s
  Stream #0:0: Video: h264 (High), yuv420p(tv, bt709, progressive), 2560x1440 [SAR 1:1 DAR 16:9], 8192 kb/s, 60 fps, 60 tbr, 1k tbn, 120 tbc
  Stream #0:1: Audio: aac (LC), 48000 Hz, stereo, fltp, 196 kb/s
Stream mapping:
  Stream #0:0 -> #0:0 (h264 (native) -> png (native))
Press [q] to stop, [?] for help
Output #0, image2, to '/storage/32426326/20250625/32426326-20250625-140122-382.all.thumb.png':
  Metadata:
    profile         : 
    cdn_ip          : 192.168.252.4
    displayWidth    : 2560
    Rawdata         : 
    fps             : 60
    displayHeight   : 1440
    level           : 
    AreaNameChild   : 主机游戏
    Title           : 技术主播没有GG
    Artist          : 蓝音BuBuLine (32426326)
    Comment         : mikufans直播间 32426326 的直播录像
                    : 主播名: 蓝音BuBuLine
                    : 直播标题: 技术主播没有GG
                    : 直播分区: 单机游戏·主机游戏
                    : 录制时间: 2025-06-25T14:01:22.5043719+00:00
                    : 直播服务器:
                    : d1--ov-gotcha07.bilivideo.com [156.59.188.244]
                    : 
                    : 使用 mikufans录播姬 录制 https://rec.danmuji.org
                    : 录播姬版本: 2.17.0
    RecordedBy      : BililiveRecorder mikufans录播姬
    RecordedFrom    : d1--ov-gotcha07.bilivideo.com
    StreamServers   : d1--ov-gotcha07.bilivideo.com [156.59.188.244]
    RecorderVersion : 2.17.0+Branch.tags-v2.17.0.Sha.79d60d3b69038634787f3d53faa1124d513cf64a
    StartTime       : Wed, 25 Jun 2025 14:01:22 +0000
    RoomId          : 32426326
    ShortId         : 0
    Name            : 蓝音BuBuLine
    StreamTitle     : 技术主播没有GG
    AreaNameParent  : 单机游戏
    encoder         : Lavf58.76.100
  Stream #0:0: Video: png, rgb24(pc, gbr/bt709/bt709, progressive), 2560x1440 [SAR 1:1 DAR 16:9], q=2-31, 200 kb/s, 60 fps, 60 tbn
    Metadata:
      encoder         : Lavc58.134.100 png
frame=    1 fps=0.0 q=0.0 size=N/A time=00:00:00.00 bitrate=N/A speed=   0x    frame=    1 fps=0.0 q=-0.0 Lsize=N/A time=00:00:00.01 bitrate=N/A speed=0.0403x    
video:3673kB audio:0kB subtitle:0kB other streams:0kB global headers:0kB muxing overhead: unknown
ffmpeg version 4.4.2-0ubuntu0.22.04.1 Copyright (c) 2000-2021 the FFmpeg developers
  built with gcc 11 (Ubuntu 11.2.0-19ubuntu1)
  configuration: --prefix=/usr --extra-version=0ubuntu0.22.04.1 --toolchain=hardened --libdir=/usr/lib/x86_64-linux-gnu --incdir=/usr/include/x86_64-linux-gnu --arch=amd64 --enable-gpl --disable-stripping --enable-gnutls --enable-ladspa --enable-libaom --enable-libass --enable-libbluray --enable-libbs2b --enable-libcaca --enable-libcdio --enable-libcodec2 --enable-libdav1d --enable-libflite --enable-libfontconfig --enable-libfreetype --enable-libfribidi --enable-libgme --enable-libgsm --enable-libjack --enable-libmp3lame --enable-libmysofa --enable-libopenjpeg --enable-libopenmpt --enable-libopus --enable-libpulse --enable-librabbitmq --enable-librubberband --enable-libshine --enable-libsnappy --enable-libsoxr --enable-libspeex --enable-libsrt --enable-libssh --enable-libtheora --enable-libtwolame --enable-libvidstab --enable-libvorbis --enable-libvpx --enable-libwebp --enable-libx265 --enable-libxml2 --enable-libxvid --enable-libzimg --enable-libzmq --enable-libzvbi --enable-lv2 --enable-omx --enable-openal --enable-opencl --enable-opengl --enable-sdl2 --enable-pocketsphinx --enable-librsvg --enable-libmfx --enable-libdc1394 --enable-libdrm --enable-libiec61883 --enable-chromaprint --enable-frei0r --enable-libx264 --enable-shared
  libavutil      56. 70.100 / 56. 70.100
  libavcodec     58.134.100 / 58.134.100
  libavformat    58. 76.100 / 58. 76.100
  libavdevice    58. 13.100 / 58. 13.100
  libavfilter     7.110.100 /  7.110.100
  libswscale      5.  9.100 /  5.  9.100
  libswresample   3.  9.100 /  3.  9.100
  libpostproc    55.  9.100 / 55.  9.100
[flv @ 0x55a44a2f0fc0] Auto-inserting h264_mp4toannexb bitstream filter
Input #0, concat, from '/storage/32426326/20250625/32426326-20250625-140122-382.all.concat.txt':
  Duration: N/A, start: 0.000000, bitrate: 8388 kb/s
  Stream #0:0: Video: h264 (High), yuv420p(tv, bt709, progressive), 2560x1440 [SAR 1:1 DAR 16:9], 8192 kb/s, 60 fps, 60 tbr, 1k tbn, 120 tbc
  Stream #0:1: Audio: aac (LC), 48000 Hz, stereo, fltp, 196 kb/s
Output #0, flv, to '/storage/32426326/20250625/32426326-20250625-140122-382.all.flv':
  Metadata:
    encoder         : Lavf58.76.100
  Stream #0:0: Video: h264 (High) ([7][0][0][0] / 0x0007), yuv420p(tv, bt709, progressive), 2560x1440 [SAR 1:1 DAR 16:9], q=2-31, 8192 kb/s, 60 fps, 60 tbr, 1k tbn, 1k tbc
  Stream #0:1: Audio: aac (LC) ([10][0][0][0] / 0x000A), 48000 Hz, stereo, fltp, 196 kb/s
Stream mapping:
  Stream #0:0 -> #0:0 (copy)
  Stream #0:1 -> #0:1 (copy)
Press [q] to stop, [?] for help
frame=    1 fps=0.0 q=-1.0 size=       0kB time=00:00:00.00 bitrate=N/A speed=   0x    frame= 5165 fps=0.0 q=-1.0 size=   36352kB time=00:01:26.23 bitrate=3453.5kbits/s speed= 172x    frame= 7406 fps=7394 q=-1.0 size=   73472kB time=00:02:03.58 bitrate=4870.4kbits/s speed= 123x    frame= 9860 fps=6562 q=-1.0 size=  113152kB time=00:02:44.48 bitrate=5635.6kbits/s speed= 109x    frame=12416 fps=6196 q=-1.0 size=  152064kB time=00:03:27.08 bitrate=6015.6kbits/s speed= 103x    frame=14762 fps=5894 q=-1.0 size=  191232kB time=00:04:06.18 bitrate=6363.5kbits/s speed=98.3x    frame=17124 fps=5699 q=-1.0 size=  230400kB time=00:04:45.54 bitrate=6609.9kbits/s speed=  95x    frame=19462 fps=5553 q=-1.0 size=  269568kB time=00:05:24.51 bitrate=6805.0kbits/s speed=92.6x    frame=21766 fps=5435 q=-1.0 size=  307968kB time=00:06:02.92 bitrate=6951.5kbits/s speed=90.6x    frame=24211 fps=5374 q=-1.0 size=  348672kB time=00:06:43.66 bitrate=7076.0kbits/s speed=89.6x    frame=26878 fps=5370 q=-1.0 size=  389376kB time=00:07:28.11 bitrate=7118.2kbits/s speed=89.5x    frame=29620 fps=5380 q=-1.0 size=  430592kB time=00:08:13.82 bitrate=7143.0kbits/s speed=89.7x    frame=32078 fps=5341 q=-1.0 size=  471808kB time=00:08:54.78 bitrate=7227.4kbits/s speed=  89x    frame=34301 fps=5272 q=-1.0 size=  508672kB time=00:09:31.84 bitrate=7287.0kbits/s speed=87.9x    frame=36720 fps=5241 q=-1.0 size=  549120kB time=00:10:12.14 bitrate=7348.5kbits/s speed=87.4x    frame=39108 fps=5210 q=-1.0 size=  589056kB time=00:10:51.95 bitrate=7401.7kbits/s speed=86.9x    frame=41306 fps=5159 q=-1.0 size=  625664kB time=00:11:28.58 bitrate=7443.5kbits/s speed=  86x    frame=43629 fps=5129 q=-1.0 size=  666880kB time=00:12:12.93 bitrate=7453.8kbits/s speed=86.2x    frame=45601 fps=5063 q=-1.0 size=  704768kB time=00:12:56.90 bitrate=7431.4kbits/s speed=86.3x    frame=48180 fps=5068 q=-1.0 size=  743936kB time=00:13:39.88 bitrate=7433.1kbits/s speed=86.2x    frame=50622 fps=5059 q=-1.0 size=  780544kB time=00:14:20.59 bitrate=7430.0kbits/s speed=  86x    frame=52851 fps=5030 q=-1.0 size=  817920kB time=00:14:57.73 bitrate=7463.7kbits/s speed=85.4x    frame=55192 fps=5014 q=-1.0 size=  856832kB time=00:15:36.74 bitrate=7493.1kbits/s speed=85.1x    frame=57615 fps=5007 q=-1.0 size=  897280kB time=00:16:17.13 bitrate=7522.5kbits/s speed=84.9x    frame=59816 fps=4981 q=-1.0 size=  934144kB time=00:16:53.81 bitrate=7548.2kbits/s speed=84.4x    frame=62270 fps=4978 q=-1.0 size=  974848kB time=00:17:34.72 bitrate=7571.6kbits/s speed=84.3x    frame=64602 fps=4966 q=-1.0 size= 1013760kB time=00:18:13.59 bitrate=7594.0kbits/s speed=84.1x    frame=66901 fps=4952 q=-1.0 size= 1052160kB time=00:18:51.90 bitrate=7614.8kbits/s speed=83.8x    frame=69232 fps=4942 q=-1.0 size= 1091072kB time=00:19:30.75 bitrate=7634.4kbits/s speed=83.6x    frame=71469 fps=4926 q=-1.0 size= 1128448kB time=00:20:08.03 bitrate=7652.3kbits/s speed=83.3x    frame=73843 fps=4920 q=-1.0 size= 1167872kB time=00:20:47.59 bitrate=7668.5kbits/s speed=83.1x    frame=75935 fps=4896 q=-1.0 size= 1203200kB time=00:21:22.47 bitrate=7685.6kbits/s speed=82.7x    frame=78333 fps=4893 q=-1.0 size= 1242624kB time=00:22:02.43 bitrate=7697.6kbits/s speed=82.6x    frame=81012 fps=4907 q=-1.0 size= 1283584kB time=00:22:47.08 bitrate=7691.6kbits/s speed=82.8x    frame=83647 fps=4917 q=-1.0 size= 1324032kB time=00:23:31.01 bitrate=7687.0kbits/s speed=82.9x    frame=85863 fps=4903 q=-1.0 size= 1361152kB time=00:24:07.93 bitrate=7701.0kbits/s speed=82.7x    frame=88353 fps=4905 q=-1.0 size= 1402624kB time=00:24:49.43 bitrate=7714.5kbits/s speed=82.7x    frame=90768 fps=4903 q=-1.0 size= 1442816kB time=00:25:29.68 bitrate=7726.8kbits/s speed=82.6x    frame=93112 fps=4897 q=-1.0 size= 1482240kB time=00:26:08.74 bitrate=7740.3kbits/s speed=82.5x    frame=95447 fps=4891 q=-1.0 size= 1520896kB time=00:26:47.66 bitrate=7749.9kbits/s speed=82.4x    frame=97543 fps=4874 q=-1.0 size= 1555968kB time=00:27:22.60 bitrate=7759.9kbits/s speed=82.1x    frame=99916 fps=4871 q=-1.0 size= 1595648kB time=00:28:02.14 bitrate=7770.8kbits/s speed=  82x    frame=102622 fps=4884 q=-1.0 size= 1637120kB time=00:28:47.25 bitrate=7764.5kbits/s speed=82.2x    frame=105440 fps=4901 q=-1.0 size= 1678336kB time=00:29:34.21 bitrate=7749.3kbits/s speed=82.5x    frame=107914 fps=4902 q=-1.0 size= 1719808kB time=00:30:15.44 bitrate=7760.4kbits/s speed=82.5x    frame=110408 fps=4904 q=-1.0 size= 1761536kB time=00:30:57.02 bitrate=7770.8kbits/s speed=82.5x    frame=112949 fps=4908 q=-1.0 size= 1803776kB time=00:31:39.36 bitrate=7779.7kbits/s speed=82.5x    frame=115527 fps=4913 q=-1.0 size= 1846784kB time=00:32:22.33 bitrate=7789.0kbits/s speed=82.6x    frame=117870 fps=4908 q=-1.0 size= 1885952kB time=00:33:01.38 bitrate=7797.5kbits/s speed=82.5x    frame=120243 fps=4905 q=-1.0 size= 1925632kB time=00:33:40.93 bitrate=7805.7kbits/s speed=82.4x    frame=122762 fps=4907 q=-1.0 size= 1967616kB time=00:34:22.91 bitrate=7813.6kbits/s speed=82.5x    frame=125222 fps=4908 q=-1.0 size= 2008576kB time=00:35:03.91 bitrate=7820.8kbits/s speed=82.5x    frame=128113 fps=4924 q=-1.0 size= 2052864kB time=00:35:52.11 bitrate=7814.2kbits/s speed=82.7x    frame=130622 fps=4926 q=-1.0 size= 2094848kB time=00:36:33.91 bitrate=7822.1kbits/s speed=82.7x    frame=133167 fps=4929 q=-1.0 size= 2133248kB time=00:37:16.33 bitrate=7814.4kbits/s speed=82.8x    frame=135733 fps=4933 q=-1.0 size= 2176000kB time=00:37:59.10 bitrate=7821.4kbits/s speed=82.8x    frame=138188 fps=4932 q=-1.0 size= 2216960kB time=00:38:40.01 bitrate=7828.1kbits/s speed=82.8x    frame=140551 fps=4929 q=-1.0 size= 2256384kB time=00:39:19.40 bitrate=7834.3kbits/s speed=82.7x    frame=143054 fps=4930 q=-1.0 size= 2298112kB time=00:40:01.11 bitrate=7840.6kbits/s speed=82.7x    frame=145411 fps=4926 q=-1.0 size= 2337536kB time=00:40:40.39 bitrate=7846.7kbits/s speed=82.7x    frame=147877 fps=4926 q=-1.0 size= 2378496kB time=00:41:21.49 bitrate=7852.0kbits/s speed=82.7x    frame=150400 fps=4928 q=-1.0 size= 2420992kB time=00:42:03.54 bitrate=7859.1kbits/s speed=82.7x    frame=152808 fps=4926 q=-1.0 size= 2460928kB time=00:42:43.69 bitrate=7863.6kbits/s speed=82.6x    frame=155356 fps=4929 q=-1.0 size= 2503424kB time=00:43:26.14 bitrate=7869.1kbits/s speed=82.7x    frame=157789 fps=4928 q=-1.0 size= 2544128kB time=00:44:06.69 bitrate=7874.5kbits/s speed=82.7x    frame=160365 fps=4931 q=-1.0 size= 2587136kB time=00:44:49.63 bitrate=7879.8kbits/s speed=82.7x    frame=162832 fps=4931 q=-1.0 size= 2628096kB time=00:45:30.75 bitrate=7884.0kbits/s speed=82.7x    frame=165465 fps=4936 q=-1.0 size= 2668032kB time=00:46:14.63 bitrate=7877.3kbits/s speed=82.8x    frame=167959 fps=4937 q=-1.0 size= 2708736kB time=00:46:56.19 bitrate=7879.4kbits/s speed=82.8x    frame=170680 fps=4944 q=-1.0 size= 2750720kB time=00:47:41.54 bitrate=7874.7kbits/s speed=82.9x    frame=172875 fps=4936 q=-1.0 size= 2787328kB time=00:48:18.13 bitrate=7878.8kbits/s speed=82.7x    frame=175355 fps=4936 q=-1.0 size= 2828800kB time=00:48:59.46 bitrate=7883.6kbits/s speed=82.7x    frame=177856 fps=4937 q=-1.0 size= 2870528kB time=00:49:41.14 bitrate=7888.0kbits/s speed=82.8x    frame=180071 fps=4930 q=-1.0 size= 2907392kB time=00:50:18.06 bitrate=7891.6kbits/s speed=82.6x    frame=182536 fps=4930 q=-1.0 size= 2948608kB time=00:50:59.16 bitrate=7896.0kbits/s speed=82.6x    frame=184921 fps=4928 q=-1.0 size= 2988544kB time=00:51:38.89 bitrate=7900.3kbits/s speed=82.6x    frame=187153 fps=4922 q=-1.0 size= 3025664kB time=00:52:16.11 bitrate=7903.5kbits/s speed=82.5x    frame=189683 fps=4924 q=-1.0 size= 3067648kB time=00:52:58.26 bitrate=7906.9kbits/s speed=82.5x    frame=191923 fps=4918 q=-1.0 size= 3105280kB time=00:53:35.59 bitrate=7911.0kbits/s speed=82.4x    frame=194292 fps=4916 q=-1.0 size= 3144704kB time=00:54:15.08 bitrate=7914.2kbits/s speed=82.4x    frame=196799 fps=4917 q=-1.0 size= 3186688kB time=00:54:56.86 bitrate=7918.2kbits/s speed=82.4x    frame=199039 fps=4911 q=-1.0 size= 3223808kB time=00:55:34.21 bitrate=7920.7kbits/s speed=82.3x    frame=201743 fps=4917 q=-1.0 size= 3265280kB time=00:56:19.26 bitrate=7915.7kbits/s speed=82.4x    frame=204555 fps=4926 q=-1.0 size= 3308032kB time=00:57:06.13 bitrate=7909.6kbits/s speed=82.5x    frame=206744 fps=4919 q=-1.0 size= 3344640kB time=00:57:42.61 bitrate=7912.9kbits/s speed=82.4x    frame=209293 fps=4921 q=-1.0 size= 3387136kB time=00:58:25.09 bitrate=7916.3kbits/s speed=82.4x    frame=211582 fps=4917 q=-1.0 size= 3425280kB time=00:59:03.24 bitrate=7919.3kbits/s speed=82.3x    frame=213903 fps=4914 q=-1.0 size= 3464192kB time=00:59:41.93 bitrate=7922.7kbits/s speed=82.3x    frame=216199 fps=4910 q=-1.0 size= 3502336kB time=01:00:20.20 bitrate=7925.3kbits/s speed=82.2x    frame=218407 fps=4905 q=-1.0 size= 3539200kB time=01:00:57.00 bitrate=7928.1kbits/s speed=82.1x    frame=220696 fps=4901 q=-1.0 size= 3577344kB time=01:01:35.15 bitrate=7930.8kbits/s speed=82.1x    frame=223365 fps=4906 q=-1.0 size= 3618816kB time=01:02:19.63 bitrate=7927.3kbits/s speed=82.1x    frame=225754 fps=4905 q=-1.0 size= 3654912kB time=01:02:59.44 bitrate=7922.1kbits/s speed=82.1x    frame=228298 fps=4907 q=-1.0 size= 3697408kB time=01:03:41.84 bitrate=7925.3kbits/s speed=82.1x    frame=230673 fps=4905 q=-1.0 size= 3736832kB time=01:04:21.44 bitrate=7927.6kbits/s speed=82.1x    frame=232849 fps=4899 q=-1.0 size= 3773184kB time=01:04:57.71 bitrate=7930.3kbits/s speed=  82x    frame=235274 fps=4899 q=-1.0 size= 3813632kB time=01:05:38.11 bitrate=7933.1kbits/s speed=  82x    frame=237674 fps=4897 q=-1.0 size= 3853568kB time=01:06:18.11 bitrate=7935.5kbits/s speed=  82x    frame=240029 fps=4896 q=-1.0 size= 3893248kB time=01:06:57.36 bitrate=7938.9kbits/s speed=81.9x    frame=242337 fps=4893 q=-1.0 size= 3931648kB time=01:07:35.83 bitrate=7941.2kbits/s speed=81.9x    frame=244439 fps=4886 q=-1.0 size= 3966720kB time=01:08:10.86 bitrate=7943.4kbits/s speed=81.8x    frame=246640 fps=4881 q=-1.0 size= 4003584kB time=01:08:47.55 bitrate=7946.0kbits/s speed=81.7x    frame=248901 fps=4878 q=-1.0 size= 4040960kB time=01:09:25.23 bitrate=7947.6kbits/s speed=81.6x    frame=251219 fps=4875 q=-1.0 size= 4079616kB time=01:10:03.86 bitrate=7949.9kbits/s speed=81.6x    frame=253525 fps=4873 q=-1.0 size= 4118272kB time=01:10:42.29 bitrate=7952.5kbits/s speed=81.5x    frame=255873 fps=4871 q=-1.0 size= 4157440kB time=01:11:21.43 bitrate=7954.8kbits/s speed=81.5x    frame=258561 fps=4876 q=-1.0 size= 4198400kB time=01:12:06.23 bitrate=7949.9kbits/s speed=81.6x    frame=261383 fps=4883 q=-1.0 size= 4239360kB time=01:12:53.26 bitrate=7941.2kbits/s speed=81.7x    frame=263535 fps=4877 q=-1.0 size= 4275200kB time=01:13:29.13 bitrate=7943.2kbits/s speed=81.6x    frame=265830 fps=4875 q=-1.0 size= 4313344kB time=01:14:07.38 bitrate=7945.1kbits/s speed=81.6x    frame=268191 fps=4873 q=-1.0 size= 4353024kB time=01:14:46.73 bitrate=7947.9kbits/s speed=81.5x    frame=270360 fps=4869 q=-1.0 size= 4389120kB time=01:15:22.88 bitrate=7949.7kbits/s speed=81.4x    frame=272724 fps=4867 q=-1.0 size= 4428800kB time=01:16:02.28 bitrate=7952.3kbits/s speed=81.4x    frame=275087 fps=4866 q=-1.0 size= 4468224kB time=01:16:41.66 bitrate=7954.4kbits/s speed=81.4x    frame=277296 fps=4862 q=-1.0 size= 4504832kB time=01:17:18.48 bitrate=7955.9kbits/s speed=81.3x    frame=279525 fps=4859 q=-1.0 size= 4542208kB time=01:17:55.63 bitrate=7958.2kbits/s speed=81.3x    frame=281719 fps=4854 q=-1.0 size= 4578560kB time=01:18:32.19 bitrate=7959.7kbits/s speed=81.2x    frame=283837 fps=4849 q=-1.0 size= 4614144kB time=01:19:07.49 bitrate=7961.9kbits/s speed=81.1x    frame=286049 fps=4846 q=-1.0 size= 4651008kB time=01:19:44.36 bitrate=7963.7kbits/s speed=  81x    frame=288134 fps=4840 q=-1.0 size= 4685824kB time=01:20:19.11 bitrate=7965.4kbits/s speed=80.9x    frame=290608 fps=4841 q=-1.0 size= 4723456kB time=01:21:00.34 bitrate=7961.3kbits/s speed=  81x    frame=293086 fps=4842 q=-1.0 size= 4759808kB time=01:21:41.65 bitrate=7954.9kbits/s speed=  81x    frame=295066 fps=4834 q=-1.0 size= 4792832kB time=01:22:14.64 bitrate=7956.6kbits/s speed=80.9x    frame=297151 fps=4829 q=-1.0 size= 4827648kB time=01:22:49.39 bitrate=7958.3kbits/s speed=80.8x    frame=299298 fps=4825 q=-1.0 size= 4863488kB time=01:23:25.18 bitrate=7960.1kbits/s speed=80.7x    frame=301405 fps=4820 q=-1.0 size= 4898560kB time=01:24:00.29 bitrate=7961.6kbits/s speed=80.6x    frame=303755 fps=4819 q=-1.0 size= 4937728kB time=01:24:39.47 bitrate=7963.4kbits/s speed=80.6x    frame=306015 fps=4816 q=-1.0 size= 4975360kB time=01:25:17.14 bitrate=7965.0kbits/s speed=80.5x    frame=308218 fps=4813 q=-1.0 size= 5012480kB time=01:25:53.84 bitrate=7967.3kbits/s speed=80.5x    frame=310728 fps=4815 q=-1.0 size= 5054208kB time=01:26:35.68 bitrate=7968.9kbits/s speed=80.5x    frame=312943 fps=4812 q=-1.0 size= 5091072kB time=01:27:12.60 bitrate=7970.4kbits/s speed=80.5x    frame=315592 fps=4815 q=-1.0 size= 5132288kB time=01:27:56.76 bitrate=7967.7kbits/s speed=80.5x    frame=318204 fps=4819 q=-1.0 size= 5172736kB time=01:28:40.28 bitrate=7964.8kbits/s speed=80.6x    frame=320527 fps=4817 q=-1.0 size= 5211648kB time=01:29:18.99 bitrate=7966.8kbits/s speed=80.5x    frame=322964 fps=4818 q=-1.0 size= 5252096kB time=01:29:59.62 bitrate=7968.2kbits/s speed=80.5x    frame=325332 fps=4817 q=-1.0 size= 5291776kB time=01:30:39.08 bitrate=7970.1kbits/s speed=80.5x    frame=327567 fps=4814 q=-1.0 size= 5329152kB time=01:31:16.33 bitrate=7971.8kbits/s speed=80.5x    frame=330059 fps=4816 q=-1.0 size= 5370624kB time=01:31:57.87 bitrate=7973.4kbits/s speed=80.5x    frame=332432 fps=4815 q=-1.0 size= 5410304kB time=01:32:37.42 bitrate=7975.1kbits/s speed=80.5x    frame=334890 fps=4816 q=-1.0 size= 5451520kB time=01:33:18.38 bitrate=7977.1kbits/s speed=80.5x    frame=337335 fps=4816 q=-1.0 size= 5492224kB time=01:33:59.13 bitrate=7978.6kbits/s speed=80.5x    frame=339720 fps=4816 q=-1.0 size= 5532160kB time=01:34:38.88 bitrate=7980.4kbits/s speed=80.5x    frame=342183 fps=4817 q=-1.0 size= 5573120kB time=01:35:19.94 bitrate=7981.7kbits/s speed=80.5x    frame=344792 fps=4820 q=-1.0 size= 5612544kB time=01:36:03.41 bitrate=7977.6kbits/s speed=80.6x    frame=347526 fps=4824 q=-1.0 size= 5653504kB time=01:36:48.98 bitrate=7972.7kbits/s speed=80.6x    frame=350013 fps=4825 q=-1.0 size= 5695232kB time=01:37:30.43 bitrate=7974.7kbits/s speed=80.7x    frame=352296 fps=4823 q=-1.0 size= 5733120kB time=01:38:08.49 bitrate=7975.8kbits/s speed=80.6x    frame=354652 fps=4823 q=-1.0 size= 5772288kB time=01:38:47.74 bitrate=7977.2kbits/s speed=80.6x    frame=357099 fps=4823 q=-1.0 size= 5813248kB time=01:39:28.53 bitrate=7978.9kbits/s speed=80.6x    frame=359287 fps=4820 q=-1.0 size= 5849600kB time=01:40:04.99 bitrate=7980.0kbits/s speed=80.6x    frame=361712 fps=4820 q=-1.0 size= 5890304kB time=01:40:45.41 bitrate=7981.8kbits/s speed=80.6x    frame=364167 fps=4821 q=-1.0 size= 5931264kB time=01:41:26.34 bitrate=7983.3kbits/s speed=80.6x    frame=366248 fps=4816 q=-1.0 size= 5966080kB time=01:42:01.01 bitrate=7984.6kbits/s speed=80.5x    frame=368791 fps=4818 q=-1.0 size= 6008320kB time=01:42:43.39 bitrate=7985.9kbits/s speed=80.5x    frame=371235 fps=4819 q=-1.0 size= 6049280kB time=01:43:24.13 bitrate=7987.5kbits/s speed=80.5x    frame=373784 fps=4820 q=-1.0 size= 6091776kB time=01:44:06.61 bitrate=7988.9kbits/s speed=80.6x    frame=376305 fps=4822 q=-1.0 size= 6132736kB time=01:44:48.63 bitrate=7988.9kbits/s speed=80.6x    frame=378850 fps=4823 q=-1.0 size= 6171648kB time=01:45:31.05 bitrate=7985.7kbits/s speed=80.6x    frame=381263 fps=4823 q=-1.0 size= 6209792kB time=01:46:11.26 bitrate=7984.4kbits/s speed=80.6x    frame=383857 fps=4826 q=-1.0 size= 6252800kB time=01:46:54.51 bitrate=7985.5kbits/s speed=80.6x    frame=386042 fps=4823 q=-1.0 size= 6289408kB time=01:47:30.92 bitrate=7986.9kbits/s speed=80.6x    frame=388599 fps=4825 q=-1.0 size= 6332160kB time=01:48:13.53 bitrate=7988.4kbits/s speed=80.6x    frame=391078 fps=4825 q=-1.0 size= 6373632kB time=01:48:54.84 bitrate=7989.9kbits/s speed=80.6x    frame=393285 fps=4823 q=-1.0 size= 6410496kB time=01:49:31.63 bitrate=7991.1kbits/s speed=80.6x    frame=395874 fps=4825 q=-1.0 size= 6453504kB time=01:50:14.78 bitrate=7992.3kbits/s speed=80.6x    frame=398259 fps=4825 q=-1.0 size= 6493440kB time=01:50:54.53 bitrate=7993.7kbits/s speed=80.6x    frame=400762 fps=4826 q=-1.0 size= 6535168kB time=01:51:36.26 bitrate=7994.9kbits/s speed=80.6x    frame=403329 fps=4828 q=-1.0 size= 6577920kB time=01:52:19.03 bitrate=7996.2kbits/s speed=80.7x    frame=405487 fps=4825 q=-1.0 size= 6614016kB time=01:52:54.99 bitrate=7997.3kbits/s speed=80.6x    frame=407917 fps=4825 q=-1.0 size= 6654720kB time=01:53:35.49 bitrate=7998.8kbits/s speed=80.6x    frame=410475 fps=4826 q=-1.0 size= 6697216kB time=01:54:18.13 bitrate=7999.8kbits/s speed=80.6x    frame=413029 fps=4828 q=-1.0 size= 6735616kB time=01:55:00.69 bitrate=7996.0kbits/s speed=80.7x    frame=415817 fps=4832 q=-1.0 size= 6778112kB time=01:55:47.16 bitrate=7992.7kbits/s speed=80.7x    frame=418327 fps=4834 q=-1.0 size= 6819840kB time=01:56:28.99 bitrate=7993.7kbits/s speed=80.8x    frame=420659 fps=4833 q=-1.0 size= 6858752kB time=01:57:07.86 bitrate=7994.9kbits/s speed=80.7x    frame=423198 fps=4834 q=-1.0 size= 6901248kB time=01:57:50.18 bitrate=7996.3kbits/s speed=80.8x    frame=425596 fps=4834 q=-1.0 size= 6941184kB time=01:58:30.14 bitrate=7997.3kbits/s speed=80.8x    frame=428215 fps=4836 q=-1.0 size= 6984704kB time=01:59:13.79 bitrate=7998.4kbits/s speed=80.8x    frame=430687 fps=4837 q=-1.0 size= 7026176kB time=01:59:54.99 bitrate=7999.8kbits/s speed=80.8x    frame=432922 fps=4834 q=-1.0 size= 7063296kB time=02:00:32.24 bitrate=8000.6kbits/s speed=80.8x    frame=435359 fps=4835 q=-1.0 size= 7104256kB time=02:01:12.86 bitrate=8002.1kbits/s speed=80.8x    frame=437944 fps=4836 q=-1.0 size= 7147264kB time=02:01:55.94 bitrate=8003.1kbits/s speed=80.8x    frame=440038 fps=4833 q=-1.0 size= 7182080kB time=02:02:30.84 bitrate=8003.9kbits/s speed=80.7x    frame=442625 fps=4835 q=-1.0 size= 7225088kB time=02:03:13.96 bitrate=8004.9kbits/s speed=80.8x    frame=444993 fps=4834 q=-1.0 size= 7264768kB time=02:03:53.43 bitrate=8006.1kbits/s speed=80.8x    frame=447473 fps=4835 q=-1.0 size= 7302912kB time=02:04:34.77 bitrate=8003.6kbits/s speed=80.8x    frame=450245 fps=4839 q=-1.0 size= 7344640kB time=02:05:20.96 bitrate=7999.9kbits/s speed=80.8x    frame=452597 fps=4838 q=-1.0 size= 7384064kB time=02:06:00.17 bitrate=8001.2kbits/s speed=80.8x    frame=455019 fps=4838 q=-1.0 size= 7424512kB time=02:06:40.53 bitrate=8002.3kbits/s speed=80.8x    frame=457589 fps=4840 q=-1.0 size= 7467264kB time=02:07:23.37 bitrate=8003.2kbits/s speed=80.8x    frame=459783 fps=4837 q=-1.0 size= 7503872kB time=02:07:59.94 bitrate=8004.2kbits/s speed=80.8x    frame=462353 fps=4839 q=-1.0 size= 7546880kB time=02:08:42.76 bitrate=8005.4kbits/s speed=80.8x    frame=465166 fps=4843 q=-1.0 size= 7589376kB time=02:09:29.64 bitrate=8001.9kbits/s speed=80.9x    frame=467589 fps=4843 q=-1.0 size= 7626752kB time=02:10:10.03 bitrate=7999.8kbits/s speed=80.9x    frame=470099 fps=4844 q=-1.0 size= 7668992kB time=02:10:51.86 bitrate=8001.2kbits/s speed=80.9x    frame=472520 fps=4844 q=-1.0 size= 7709184kB time=02:11:32.22 bitrate=8002.0kbits/s speed=80.9x    frame=474815 fps=4842 q=-1.0 size= 7747584kB time=02:12:10.46 bitrate=8003.1kbits/s speed=80.9x    frame=477359 fps=4844 q=-1.0 size= 7789824kB time=02:12:52.86 bitrate=8003.9kbits/s speed=80.9x    frame=479575 fps=4842 q=-1.0 size= 7826688kB time=02:13:29.79 bitrate=8004.7kbits/s speed=80.9x    frame=482004 fps=4842 q=-1.0 size= 7867392kB time=02:14:10.28 bitrate=8005.9kbits/s speed=80.9x    frame=484509 fps=4842 q=-1.0 size= 7909120kB time=02:14:52.03 bitrate=8006.8kbits/s speed=80.9x    frame=486724 fps=4840 q=-1.0 size= 7946240kB time=02:15:28.94 bitrate=8007.9kbits/s speed=80.8x    frame=489214 fps=4841 q=-1.0 size= 7987712kB time=02:16:10.45 bitrate=8008.8kbits/s speed=80.8x    frame=491667 fps=4841 q=-1.0 size= 8028416kB time=02:16:51.33 bitrate=8009.5kbits/s speed=80.9x    frame=493996 fps=4840 q=-1.0 size= 8067840kB time=02:17:30.14 bitrate=8011.0kbits/s speed=80.8x    frame=496596 fps=4842 q=-1.0 size= 8110848kB time=02:18:13.48 bitrate=8011.6kbits/s speed=80.9x    frame=499126 fps=4843 q=-1.0 size= 8148992kB time=02:18:55.64 bitrate=8008.6kbits/s speed=80.9x    frame=501647 fps=4844 q=-1.0 size= 8186624kB time=02:19:37.66 bitrate=8005.2kbits/s speed=80.9x    frame=503959 fps=4843 q=-1.0 size= 8225024kB time=02:20:16.19 bitrate=8005.9kbits/s speed=80.9x    frame=506135 fps=4841 q=-1.0 size= 8261376kB time=02:20:52.46 bitrate=8006.8kbits/s speed=80.8x    frame=508556 fps=4841 q=-1.0 size= 8301824kB time=02:21:32.82 bitrate=8007.8kbits/s speed=80.8x    frame=511054 fps=4841 q=-1.0 size= 8343552kB time=02:22:14.44 bitrate=8008.8kbits/s speed=80.8x    frame=513468 fps=4841 q=-1.0 size= 8384000kB time=02:22:54.68 bitrate=8009.8kbits/s speed=80.8x    frame=515991 fps=4842 q=-1.0 size= 8425984kB time=02:23:36.73 bitrate=8010.7kbits/s speed=80.9x    frame=518353 fps=4842 q=-1.0 size= 8465408kB time=02:24:16.11 bitrate=8011.5kbits/s speed=80.9x    frame=520748 fps=4841 q=-1.0 size= 8505344kB time=02:24:56.02 bitrate=8012.4kbits/s speed=80.8x    frame=523294 fps=4843 q=-1.0 size= 8547840kB time=02:25:38.45 bitrate=8013.3kbits/s speed=80.9x    frame=525635 fps=4842 q=-1.0 size= 8586752kB time=02:26:17.47 bitrate=8014.0kbits/s speed=80.9x    frame=528019 fps=4842 q=-1.0 size= 8626432kB time=02:26:57.19 bitrate=8014.8kbits/s speed=80.8x    frame=530552 fps=4843 q=-1.0 size= 8668928kB time=02:27:39.41 bitrate=8015.9kbits/s speed=80.9x    frame=532883 fps=4842 q=-1.0 size= 8707840kB time=02:28:18.26 bitrate=8016.7kbits/s speed=80.8x    frame=535649 fps=4845 q=-1.0 size= 8749824kB time=02:29:04.36 bitrate=8013.8kbits/s speed=80.9x    frame=538227 fps=4846 q=-1.0 size= 8787200kB time=02:29:47.33 bitrate=8009.6kbits/s speed=80.9x    frame=540605 fps=4846 q=-1.0 size= 8826624kB time=02:30:26.96 bitrate=8010.2kbits/s speed=80.9x    frame=543101 fps=4846 q=-1.0 size= 8868352kB time=02:31:08.56 bitrate=8011.1kbits/s speed=80.9x    frame=545600 fps=4847 q=-1.0 size= 8910080kB time=02:31:50.21 bitrate=8012.0kbits/s speed=80.9x    frame=548107 fps=4848 q=-1.0 size= 8952064kB time=02:32:31.99 bitrate=8013.0kbits/s speed=80.9x    frame=550638 fps=4849 q=-1.0 size= 8994048kB time=02:33:14.18 bitrate=8013.7kbits/s speed=  81x    frame=552765 fps=4846 q=-1.0 size= 9029632kB time=02:33:49.63 bitrate=8014.5kbits/s speed=80.9x    frame=555341 fps=4847 q=-1.0 size= 9072640kB time=02:34:32.56 bitrate=8015.4kbits/s speed=80.9x    frame=557691 fps=4847 q=-1.0 size= 9112064kB time=02:35:11.73 bitrate=8016.3kbits/s speed=80.9x    frame=560248 fps=4848 q=-1.0 size= 9154560kB time=02:35:54.34 bitrate=8017.0kbits/s speed=80.9x    frame=562693 fps=4848 q=-1.0 size= 9195264kB time=02:36:35.09 bitrate=8017.8kbits/s speed=80.9x    frame=565154 fps=4848 q=-1.0 size= 9232896kB time=02:37:16.12 bitrate=8015.6kbits/s speed=  81x    frame=567871 fps=4851 q=-1.0 size= 9274624kB time=02:38:01.41 bitrate=8013.3kbits/s speed=  81x    frame=570434 fps=4852 q=-1.0 size= 9316864kB time=02:38:44.11 bitrate=8013.7kbits/s speed=  81x    frame=572555 fps=4849 q=-1.0 size= 9352192kB time=02:39:19.46 bitrate=8014.4kbits/s speed=  81x    frame=574654 fps=4847 q=-1.0 size= 9387264kB time=02:39:54.45 bitrate=8015.1kbits/s speed=80.9x    frame=577007 fps=4846 q=-1.0 size= 9426432kB time=02:40:33.66 bitrate=8015.8kbits/s speed=80.9x    frame=579388 fps=4846 q=-1.0 size= 9466112kB time=02:41:13.34 bitrate=8016.5kbits/s speed=80.9x    frame=581684 fps=4845 q=-1.0 size= 9504512kB time=02:41:51.62 bitrate=8017.3kbits/s speed=80.9x    frame=584172 fps=4845 q=-1.0 size= 9546240kB time=02:42:33.08 bitrate=8018.3kbits/s speed=80.9x    frame=586516 fps=4844 q=-1.0 size= 9585152kB time=02:43:12.14 bitrate=8018.8kbits/s speed=80.9x    frame=588912 fps=4844 q=-1.0 size= 9625088kB time=02:43:52.08 bitrate=8019.5kbits/s speed=80.9x    frame=591394 fps=4845 q=-1.0 size= 9666560kB time=02:44:33.45 bitrate=8020.3kbits/s speed=80.9x    frame=593605 fps=4843 q=-1.0 size= 9703424kB time=02:45:10.29 bitrate=8021.0kbits/s speed=80.9x    frame=596107 fps=4844 q=-1.0 size= 9745152kB time=02:45:51.99 bitrate=8021.7kbits/s speed=80.9x    frame=598663 fps=4845 q=-1.0 size= 9787904kB time=02:46:34.60 bitrate=8022.6kbits/s speed=80.9x    frame=601416 fps=4847 q=-1.0 size= 9829888kB time=02:47:20.48 bitrate=8020.2kbits/s speed=80.9x    frame=603985 fps=4848 q=-1.0 size= 9872128kB time=02:48:03.29 bitrate=8020.4kbits/s speed=80.9x    frame=606700 fps=4851 q=-1.0 size= 9913088kB time=02:48:48.54 bitrate=8017.7kbits/s speed=  81x    frame=609290 fps=4852 q=-1.0 size= 9956096kB time=02:49:31.71 bitrate=8018.3kbits/s speed=  81x    frame=611818 fps=4853 q=-1.0 size= 9998592kB time=02:50:13.84 bitrate=8019.4kbits/s speed=  81x    frame=614145 fps=4852 q=-1.0 size=10037248kB time=02:50:52.63 bitrate=8019.9kbits/s speed=  81x    frame=616567 fps=4852 q=-1.0 size=10077440kB time=02:51:32.99 bitrate=8020.4kbits/s speed=  81x    frame=619135 fps=4853 q=-1.0 size=10120448kB time=02:52:15.79 bitrate=8021.3kbits/s speed=  81x    frame=621384 fps=4852 q=-1.0 size=10158080kB time=02:52:53.29 bitrate=8022.0kbits/s speed=  81x    frame=624005 fps=4853 q=-1.0 size=10201600kB time=02:53:36.96 bitrate=8022.6kbits/s speed=  81x    frame=626367 fps=4853 q=-1.0 size=10241280kB time=02:54:16.34 bitrate=8023.5kbits/s speed=  81x    frame=628927 fps=4854 q=-1.0 size=10283776kB time=02:54:59.01 bitrate=8024.1kbits/s speed=  81x    frame=631421 fps=4854 q=-1.0 size=10325504kB time=02:55:40.56 bitrate=8024.9kbits/s speed=  81x    frame=633906 fps=4855 q=-1.0 size=10366976kB time=02:56:21.98 bitrate=8025.6kbits/s speed=  81x    frame=636572 fps=4857 q=-1.0 size=10407936kB time=02:57:06.41 bitrate=8023.6kbits/s speed=81.1x    frame=639303 fps=4859 q=-1.0 size=10449920kB time=02:57:51.94 bitrate=8021.6kbits/s speed=81.1x    frame=641600 fps=4858 q=-1.0 size=10487808kB time=02:58:30.21 bitrate=8021.9kbits/s speed=81.1x    frame=644060 fps=4858 q=-1.0 size=10528768kB time=02:59:11.21 bitrate=8022.5kbits/s speed=81.1x    frame=646575 fps=4859 q=-1.0 size=10570752kB time=02:59:53.13 bitrate=8023.2kbits/s speed=81.1x    frame=648847 fps=4857 q=-1.0 size=10608896kB time=03:00:30.99 bitrate=8024.0kbits/s speed=81.1x    frame=651366 fps=4858 q=-1.0 size=10650880kB time=03:01:12.98 bitrate=8024.7kbits/s speed=81.1x    frame=653445 fps=4856 q=-1.0 size=10685440kB time=03:01:47.63 bitrate=8025.1kbits/s speed=81.1x    frame=655549 fps=4853 q=-1.0 size=10720768kB time=03:02:22.69 bitrate=8025.9kbits/s speed=  81x    frame=657626 fps=4850 q=-1.0 size=10755328kB time=03:02:57.32 bitrate=8026.3kbits/s speed=  81x    frame=659637 fps=4847 q=-1.0 size=10789120kB time=03:03:30.84 bitrate=8027.0kbits/s speed=80.9x    frame=661730 fps=4845 q=-1.0 size=10823936kB time=03:04:05.71 bitrate=8027.5kbits/s speed=80.9x    frame=664001 fps=4844 q=-1.0 size=10861824kB time=03:04:43.56 bitrate=8028.1kbits/s speed=80.9x    frame=666150 fps=4842 q=-1.0 size=10897664kB time=03:05:19.38 bitrate=8028.7kbits/s speed=80.8x    frame=668791 fps=4843 q=-1.0 size=10937344kB time=03:06:03.39 bitrate=8026.1kbits/s speed=80.8x    frame=671596 fps=4846 q=-1.0 size=10980352kB time=03:06:50.14 bitrate=8024.1kbits/s speed=80.9x    frame=673844 fps=4845 q=-1.0 size=11017984kB time=03:07:27.61 bitrate=8024.8kbits/s speed=80.9x    frame=676349 fps=4846 q=-1.0 size=11059712kB time=03:08:09.36 bitrate=8025.4kbits/s speed=80.9x    frame=678635 fps=4845 q=-1.0 size=11097600kB time=03:08:47.47 bitrate=8025.8kbits/s speed=80.9x    frame=680820 fps=4843 q=-1.0 size=11134208kB time=03:09:23.88 bitrate=8026.4kbits/s speed=80.8x    frame=683293 fps=4843 q=-1.0 size=11175680kB time=03:10:05.09 bitrate=8027.2kbits/s speed=80.8x    frame=685710 fps=4843 q=-1.0 size=11215872kB time=03:10:45.38 bitrate=8027.7kbits/s speed=80.8x    frame=688066 fps=4843 q=-1.0 size=11255296kB time=03:11:24.64 bitrate=8028.4kbits/s speed=80.8x    frame=690622 fps=4844 q=-1.0 size=11297792kB time=03:12:07.25 bitrate=8028.9kbits/s speed=80.8x    frame=692817 fps=4842 q=-1.0 size=11334656kB time=03:12:43.83 bitrate=8029.6kbits/s speed=80.8x    frame=695366 fps=4843 q=-1.0 size=11376896kB time=03:13:26.31 bitrate=8030.1kbits/s speed=80.8x    frame=697785 fps=4843 q=-1.0 size=11417344kB time=03:14:06.63 bitrate=8030.7kbits/s speed=80.8x    frame=699994 fps=4841 q=-1.0 size=11454208kB time=03:14:43.44 bitrate=8031.3kbits/s speed=80.8x    frame=702450 fps=4842 q=-1.0 size=11495168kB time=03:15:24.38 bitrate=8031.8kbits/s speed=80.8x    frame=705091 fps=4843 q=-1.0 size=11535104kB time=03:16:08.39 bitrate=8029.6kbits/s speed=80.8x    frame=707405 fps=4842 q=-1.0 size=11573504kB time=03:16:46.96 bitrate=8030.0kbits/s speed=80.8x    frame=710210 fps=4845 q=-1.0 size=11614976kB time=03:17:33.71 bitrate=8027.0kbits/s speed=80.9x    frame=712550 fps=4844 q=-1.0 size=11654144kB time=03:18:12.71 bitrate=8027.7kbits/s speed=80.9x    frame=714997 fps=4845 q=-1.0 size=11694848kB time=03:18:53.50 bitrate=8028.2kbits/s speed=80.9x    frame=717491 fps=4845 q=-1.0 size=11736320kB time=03:19:35.06 bitrate=8028.7kbits/s speed=80.9x    frame=719575 fps=4843 q=-1.0 size=11771648kB time=03:20:09.79 bitrate=8029.6kbits/s speed=80.8x    frame=721770 fps=4841 q=-1.0 size=11808000kB time=03:20:46.38 bitrate=8029.9kbits/s speed=80.8x    frame=724098 fps=4841 q=-1.0 size=11846656kB time=03:21:25.18 bitrate=8030.3kbits/s speed=80.8x    frame=726515 fps=4841 q=-1.0 size=11886848kB time=03:22:05.46 bitrate=8030.8kbits/s speed=80.8x    frame=729027 fps=4841 q=-1.0 size=11929088kB time=03:22:47.34 bitrate=8031.6kbits/s speed=80.8x    frame=731481 fps=4841 q=-1.0 size=11966464kB time=03:23:28.23 bitrate=8029.8kbits/s speed=80.8x    frame=734224 fps=4844 q=-1.0 size=12006912kB time=03:24:13.95 bitrate=8026.8kbits/s speed=80.8x    frame=736620 fps=4843 q=-1.0 size=12047104kB time=03:24:53.88 bitrate=8027.6kbits/s speed=80.8x    frame=738883 fps=4842 q=-1.0 size=12084736kB time=03:25:31.59 bitrate=8028.0kbits/s speed=80.8x    frame=741292 fps=4842 q=-1.0 size=12124928kB time=03:26:11.75 bitrate=8028.6kbits/s speed=80.8x    frame=743826 fps=4843 q=-1.0 size=12167168kB time=03:26:53.98 bitrate=8029.1kbits/s speed=80.8x    frame=746205 fps=4843 q=-1.0 size=12206848kB time=03:27:33.63 bitrate=8029.7kbits/s speed=80.8x    frame=748694 fps=4843 q=-1.0 size=12248576kB time=03:28:15.11 bitrate=8030.4kbits/s speed=80.8x    frame=751028 fps=4843 q=-1.0 size=12287232kB time=03:28:54.02 bitrate=8030.7kbits/s speed=80.8x    frame=753412 fps=4842 q=-1.0 size=12327168kB time=03:29:33.74 bitrate=8031.3kbits/s speed=80.8x    frame=755873 fps=4843 q=-1.0 size=12368128kB time=03:30:14.76 bitrate=8031.8kbits/s speed=80.8x    frame=758118 fps=4841 q=-1.0 size=12405760kB time=03:30:52.18 bitrate=8032.4kbits/s speed=80.8x    frame=760482 fps=4841 q=-1.0 size=12445440kB time=03:31:31.58 bitrate=8033.1kbits/s speed=80.8x    frame=762960 fps=4841 q=-1.0 size=12486144kB time=03:32:12.88 bitrate=8033.3kbits/s speed=80.8x    frame=765367 fps=4841 q=-1.0 size=12523264kB time=03:32:52.99 bitrate=8031.8kbits/s speed=80.8x    frame=768086 fps=4843 q=-1.0 size=12564736kB time=03:33:38.31 bitrate=8029.9kbits/s speed=80.8x    frame=770440 fps=4843 q=-1.0 size=12603648kB time=03:34:17.56 bitrate=8030.2kbits/s speed=80.8x    frame=772472 fps=4840 q=-1.0 size=12637696kB time=03:34:51.41 bitrate=8030.8kbits/s speed=80.8x    frame=774664 fps=4839 q=-1.0 size=12674304kB time=03:35:27.96 bitrate=8031.3kbits/s speed=80.8x    frame=777045 fps=4839 q=-1.0 size=12713984kB time=03:36:07.64 bitrate=8031.8kbits/s speed=80.7x    frame=779300 fps=4838 q=-1.0 size=12751616kB time=03:36:45.21 bitrate=8032.3kbits/s speed=80.7x    frame=781725 fps=4838 q=-1.0 size=12792064kB time=03:37:25.63 bitrate=8032.8kbits/s speed=80.7x    frame=784117 fps=4837 q=-1.0 size=12832000kB time=03:38:05.50 bitrate=8033.3kbits/s speed=80.7x    frame=786608 fps=4838 q=-1.0 size=12869632kB time=03:38:47.02 bitrate=8031.4kbits/s speed=80.7x    frame=789377 fps=4840 q=-1.0 size=12910592kB time=03:39:33.16 bitrate=8028.7kbits/s speed=80.8x    frame=791814 fps=4840 q=-1.0 size=12951040kB time=03:40:13.78 bitrate=8029.1kbits/s speed=80.8x    frame=794051 fps=4839 q=-1.0 size=12988416kB time=03:40:51.07 bitrate=8029.6kbits/s speed=80.8x    frame=796528 fps=4839 q=-1.0 size=13029632kB time=03:41:32.35 bitrate=8030.1kbits/s speed=80.8x    frame=798894 fps=4839 q=-1.0 size=13069056kB time=03:42:11.78 bitrate=8030.6kbits/s speed=80.8x    frame=801181 fps=4838 q=-1.0 size=13107456kB time=03:42:49.89 bitrate=8031.2kbits/s speed=80.7x    frame=803667 fps=4839 q=-1.0 size=13148672kB time=03:43:31.33 bitrate=8031.6kbits/s speed=80.7x    frame=805958 fps=4838 q=-1.0 size=13187328kB time=03:44:09.51 bitrate=8032.3kbits/s speed=80.7x    frame=808696 fps=4840 q=-1.0 size=13228800kB time=03:44:55.14 bitrate=8030.3kbits/s speed=80.8x    frame=811461 fps=4842 q=-1.0 size=13271040kB time=03:45:41.23 bitrate=8028.5kbits/s speed=80.8x    frame=813689 fps=4841 q=-1.0 size=13308416kB time=03:46:18.36 bitrate=8029.1kbits/s speed=80.8x    frame=816122 fps=4841 q=-1.0 size=13348864kB time=03:46:58.92 bitrate=8029.6kbits/s speed=80.8x    frame=818499 fps=4840 q=-1.0 size=13388544kB time=03:47:38.54 bitrate=8030.1kbits/s speed=80.8x    frame=820951 fps=4841 q=-1.0 size=13429504kB time=03:48:19.39 bitrate=8030.6kbits/s speed=80.8x    frame=823402 fps=4841 q=-1.0 size=13470464kB time=03:49:00.24 bitrate=8031.2kbits/s speed=80.8x    frame=825778 fps=4841 q=-1.0 size=13509888kB time=03:49:39.84 bitrate=8031.5kbits/s speed=80.8x    frame=828293 fps=4841 q=-1.0 size=13551872kB time=03:50:21.76 bitrate=8032.0kbits/s speed=80.8x    frame=830864 fps=4842 q=-1.0 size=13594880kB time=03:51:04.62 bitrate=8032.6kbits/s speed=80.8x    frame=833276 fps=4842 q=-1.0 size=13635328kB time=03:51:44.81 bitrate=8033.2kbits/s speed=80.8x    frame=835834 fps=4843 q=-1.0 size=13677824kB time=03:52:27.44 bitrate=8033.6kbits/s speed=80.8x    frame=838355 fps=4843 q=-1.0 size=13719808kB time=03:53:09.46 bitrate=8034.1kbits/s speed=80.8x    frame=840944 fps=4844 q=-1.0 size=13759744kB time=03:53:52.61 bitrate=8032.7kbits/s speed=80.8x    frame=843622 fps=4846 q=-1.0 size=13801984kB time=03:54:37.25 bitrate=8031.8kbits/s speed=80.9x    frame=846146 fps=4846 q=-1.0 size=13843712kB time=03:55:19.32 bitrate=8032.1kbits/s speed=80.9x    frame=848554 fps=4846 q=-1.0 size=13883904kB time=03:55:59.44 bitrate=8032.6kbits/s speed=80.9x    frame=851083 fps=4847 q=-1.0 size=13926144kB time=03:56:41.60 bitrate=8033.1kbits/s speed=80.9x    frame=853372 fps=4846 q=-1.0 size=13964288kB time=03:57:19.74 bitrate=8033.5kbits/s speed=80.9x    frame=855824 fps=4846 q=-1.0 size=14005248kB time=03:58:00.61 bitrate=8034.0kbits/s speed=80.9x    frame=858240 fps=4846 q=-1.0 size=14045696kB time=03:58:40.88 bitrate=8034.6kbits/s speed=80.9x    frame=860492 fps=4845 q=-1.0 size=14083328kB time=03:59:18.41 bitrate=8035.1kbits/s speed=80.8x    frame=862977 fps=4846 q=-1.0 size=14124544kB time=03:59:59.83 bitrate=8035.4kbits/s speed=80.9x    frame=865567 fps=4846 q=-1.0 size=14167808kB time=04:00:43.01 bitrate=8035.9kbits/s speed=80.9x    frame=867607 fps=4844 q=-1.0 size=14202112kB time=04:01:16.99 bitrate=8036.5kbits/s speed=80.8x    frame=870123 fps=4845 q=-1.0 size=14243840kB time=04:01:58.93 bitrate=8036.8kbits/s speed=80.8x    frame=872515 fps=4845 q=-1.0 size=14283520kB time=04:02:38.80 bitrate=8037.1kbits/s speed=80.8x    frame=875100 fps=4846 q=-1.0 size=14323456kB time=04:03:21.88 bitrate=8035.8kbits/s speed=80.9x    frame=877986 fps=4848 q=-1.0 size=14366720kB time=04:04:09.98 bitrate=8033.6kbits/s speed=80.9x    frame=880237 fps=4847 q=-1.0 size=14404352kB time=04:04:47.49 bitrate=8034.1kbits/s speed=80.9x    frame=882722 fps=4847 q=-1.0 size=14445824kB time=04:05:28.91 bitrate=8034.6kbits/s speed=80.9x    frame=885298 fps=4848 q=-1.0 size=14488832kB time=04:06:11.84 bitrate=8035.0kbits/s speed=80.9x    frame=887571 fps=4847 q=-1.0 size=14526976kB time=04:06:49.73 bitrate=8035.6kbits/s speed=80.9x    frame=890401 fps=4850 q=-1.0 size=14568448kB time=04:07:36.89 bitrate=8033.0kbits/s speed=80.9x    frame=893127 fps=4851 q=-1.0 size=14610176kB time=04:08:22.34 bitrate=8031.4kbits/s speed=80.9x    frame=895403 fps=4850 q=-1.0 size=14648320kB time=04:09:00.26 bitrate=8031.9kbits/s speed=80.9x    frame=897911 fps=4851 q=-1.0 size=14690048kB time=04:09:42.06 bitrate=8032.3kbits/s speed=80.9x    frame=900333 fps=4851 q=-1.0 size=14730496kB time=04:10:22.43 bitrate=8032.8kbits/s speed=80.9x    frame=902685 fps=4850 q=-1.0 size=14769664kB time=04:11:01.63 bitrate=8033.2kbits/s speed=80.9x    frame=905269 fps=4851 q=-1.0 size=14812672kB time=04:11:44.70 bitrate=8033.6kbits/s speed=80.9x    frame=907671 fps=4851 q=-1.0 size=14852864kB time=04:12:24.73 bitrate=8034.1kbits/s speed=80.9x    frame=910250 fps=4852 q=-1.0 size=14895872kB time=04:13:07.71 bitrate=8034.6kbits/s speed=  81x    frame=912744 fps=4852 q=-1.0 size=14937600kB time=04:13:49.29 bitrate=8035.1kbits/s speed=  81x    frame=914891 fps=4851 q=-1.0 size=14973184kB time=04:14:25.07 bitrate=8035.4kbits/s speed=80.9x    frame=917300 fps=4851 q=-1.0 size=15013632kB time=04:15:05.21 bitrate=8035.9kbits/s speed=80.9x    frame=919782 fps=4851 q=-1.0 size=15055104kB time=04:15:46.58 bitrate=8036.4kbits/s speed=80.9x    frame=922244 fps=4851 q=-1.0 size=15092992kB time=04:16:27.61 bitrate=8035.2kbits/s speed=80.9x    frame=924852 fps=4852 q=-1.0 size=15136000kB time=04:17:11.08 bitrate=8035.3kbits/s speed=  81x    frame=927464 fps=4853 q=-1.0 size=15175168kB time=04:17:54.62 bitrate=8033.5kbits/s speed=  81x    frame=929884 fps=4853 q=-1.0 size=15215616kB time=04:18:34.94 bitrate=8034.0kbits/s speed=  81x    frame=932065 fps=4852 q=-1.0 size=15251712kB time=04:19:11.30 bitrate=8034.2kbits/s speed=  81x    frame=934193 fps=4850 q=-1.0 size=15287552kB time=04:19:46.77 bitrate=8034.7kbits/s speed=80.9x    frame=936535 fps=4850 q=-1.0 size=15326464kB time=04:20:25.79 bitrate=8035.1kbits/s speed=80.9x    frame=938886 fps=4849 q=-1.0 size=15365888kB time=04:21:04.98 bitrate=8035.6kbits/s speed=80.9x    frame=941339 fps=4850 q=-1.0 size=15406848kB time=04:21:45.86 bitrate=8036.0kbits/s speed=80.9x    frame=943650 fps=4849 q=-1.0 size=15445504kB time=04:22:24.38 bitrate=8036.5kbits/s speed=80.9x    frame=945932 fps=4848 q=-1.0 size=15483392kB time=04:23:02.41 bitrate=8036.8kbits/s speed=80.9x    frame=948070 fps=4847 q=-1.0 size=15519232kB time=04:23:38.04 bitrate=8037.2kbits/s speed=80.9x    frame=950447 fps=4847 q=-1.0 size=15558656kB time=04:24:17.66 bitrate=8037.5kbits/s speed=80.9x    frame=953077 fps=4848 q=-1.0 size=15599360kB time=04:25:01.49 bitrate=8036.3kbits/s speed=80.9x    frame=955704 fps=4849 q=-1.0 size=15639808kB time=04:25:45.28 bitrate=8035.1kbits/s speed=80.9x    frame=958060 fps=4848 q=-1.0 size=15678976kB time=04:26:24.55 bitrate=8035.4kbits/s speed=80.9x    frame=960502 fps=4848 q=-1.0 size=15719680kB time=04:27:05.24 bitrate=8035.8kbits/s speed=80.9x    frame=962763 fps=4848 q=-1.0 size=15757312kB time=04:27:42.93 bitrate=8036.1kbits/s speed=80.9x    frame=964970 fps=4846 q=-1.0 size=15794176kB time=04:28:19.71 bitrate=8036.5kbits/s speed=80.9x    frame=967159 fps=4845 q=-1.0 size=15830784kB time=04:28:56.19 bitrate=8036.9kbits/s speed=80.8x    frame=969495 fps=4845 q=-1.0 size=15869952kB time=04:29:35.13 bitrate=8037.4kbits/s speed=80.8x    frame=971944 fps=4845 q=-1.0 size=15910656kB time=04:30:15.94 bitrate=8037.8kbits/s speed=80.8x    frame=974169 fps=4844 q=-1.0 size=15947776kB time=04:30:53.03 bitrate=8038.1kbits/s speed=80.8x    frame=976564 fps=4844 q=-1.0 size=15987712kB time=04:31:32.95 bitrate=8038.5kbits/s speed=80.8x    frame=978949 fps=4844 q=-1.0 size=16027648kB time=04:32:12.69 bitrate=8039.0kbits/s speed=80.8x    frame=981232 fps=4843 q=-1.0 size=16065536kB time=04:32:50.74 bitrate=8039.3kbits/s speed=80.8x    frame=983762 fps=4843 q=-1.0 size=16103936kB time=04:33:32.91 bitrate=8037.8kbits/s speed=80.8x    frame=986158 fps=4843 q=-1.0 size=16140800kB time=04:34:12.84 bitrate=8036.6kbits/s speed=80.8x    frame=988524 fps=4843 q=-1.0 size=16178176kB time=04:34:52.28 bitrate=8036.0kbits/s speed=80.8x    frame=990999 fps=4843 q=-1.0 size=16219392kB time=04:35:33.53 bitrate=8036.4kbits/s speed=80.8x    frame=993132 fps=4842 q=-1.0 size=16255232kB time=04:36:09.09 bitrate=8036.8kbits/s speed=80.8x    frame=995496 fps=4842 q=-1.0 size=16294912kB time=04:36:48.49 bitrate=8037.3kbits/s speed=80.8x    frame=998082 fps=4842 q=-1.0 size=16332800kB time=04:37:31.58 bitrate=8035.2kbits/s speed=80.8x    frame=1000645 fps=4843 q=-1.0 size=16371712kB time=04:38:14.29 bitrate=8033.7kbits/s speed=80.8x    frame=1002992 fps=4843 q=-1.0 size=16410624kB time=04:38:53.41 bitrate=8034.0kbits/s speed=80.8x    frame=1005137 fps=4841 q=-1.0 size=16446464kB time=04:39:29.17 bitrate=8034.3kbits/s speed=80.8x    frame=1007583 fps=4842 q=-1.0 size=16487168kB time=04:40:09.94 bitrate=8034.7kbits/s speed=80.8x    frame=1010010 fps=4842 q=-1.0 size=16527872kB time=04:40:50.38 bitrate=8035.2kbits/s speed=80.8x    frame=1012387 fps=4841 q=-1.0 size=16567296kB time=04:41:30.00 bitrate=8035.5kbits/s speed=80.8x    frame=1014770 fps=4841 q=-1.0 size=16607232kB time=04:42:09.71 bitrate=8036.0kbits/s speed=80.8x    frame=1016974 fps=4840 q=-1.0 size=16643840kB time=04:42:46.44 bitrate=8036.2kbits/s speed=80.7x    frame=1019581 fps=4841 q=-1.0 size=16687616kB time=04:43:29.89 bitrate=8036.8kbits/s speed=80.8x    frame=1022218 fps=4842 q=-1.0 size=16731392kB time=04:44:13.84 bitrate=8037.1kbits/s speed=80.8x    frame=1025007 fps=4844 q=-1.0 size=16777984kB time=04:45:00.33 bitrate=8037.6kbits/s speed=80.8x    frame=1027727 fps=4845 q=-1.0 size=16823552kB time=04:45:45.66 bitrate=8038.1kbits/s speed=80.8x    frame=1030468 fps=4847 q=-1.0 size=16869120kB time=04:46:31.34 bitrate=8038.5kbits/s speed=80.9x    frame=1033203 fps=4848 q=-1.0 size=16913920kB time=04:47:16.93 bitrate=8038.5kbits/s speed=80.9x    frame=1035859 fps=4849 q=-1.0 size=16955136kB time=04:48:01.19 bitrate=8037.4kbits/s speed=80.9x    frame=1038554 fps=4850 q=-1.0 size=16996352kB time=04:48:46.12 bitrate=8036.1kbits/s speed=80.9x    frame=1041046 fps=4851 q=-1.0 size=17037824kB time=04:49:27.64 bitrate=8036.4kbits/s speed=80.9x    frame=1043336 fps=4850 q=-1.0 size=17075968kB time=04:50:05.81 bitrate=8036.8kbits/s speed=80.9x    frame=1045759 fps=4850 q=-1.0 size=17116416kB time=04:50:46.21 bitrate=8037.1kbits/s speed=80.9x    frame=1048206 fps=4850 q=-1.0 size=17157120kB time=04:51:26.98 bitrate=8037.5kbits/s speed=80.9x    frame=1050408 fps=4849 q=-1.0 size=17193984kB time=04:52:03.69 bitrate=8037.9kbits/s speed=80.9x    frame=1052893 fps=4849 q=-1.0 size=17235456kB time=04:52:45.09 bitrate=8038.3kbits/s speed=80.9x    frame=1055386 fps=4850 q=-1.0 size=17277184kB time=04:53:26.64 bitrate=8038.7kbits/s speed=80.9x    frame=1057565 fps=4849 q=-1.0 size=17313280kB time=04:54:02.96 bitrate=8038.9kbits/s speed=80.9x    frame=1059997 fps=4849 q=-1.0 size=17353984kB time=04:54:43.49 bitrate=8039.4kbits/s speed=80.9x    frame=1062357 fps=4848 q=-1.0 size=17393408kB time=04:55:22.84 bitrate=8039.7kbits/s speed=80.9x    frame=1064860 fps=4849 q=-1.0 size=17435136kB time=04:56:04.54 bitrate=8040.1kbits/s speed=80.9x    frame=1067583 fps=4850 q=-1.0 size=17476864kB time=04:56:49.94 bitrate=8038.8kbits/s speed=80.9x    frame=1070159 fps=4851 q=-1.0 size=17515776kB time=04:57:32.86 bitrate=8037.3kbits/s speed=80.9x    frame=1072464 fps=4850 q=-1.0 size=17554432kB time=04:58:11.28 bitrate=8037.8kbits/s speed=80.9x    frame=1074963 fps=4850 q=-1.0 size=17595904kB time=04:58:52.93 bitrate=8038.0kbits/s speed=80.9x    frame=1077378 fps=4850 q=-1.0 size=17636352kB time=04:59:33.18 bitrate=8038.5kbits/s speed=80.9x    frame=1079942 fps=4851 q=-1.0 size=17679104kB time=05:00:15.91 bitrate=8038.8kbits/s speed=80.9x    frame=1082352 fps=4851 q=-1.0 size=17719040kB time=05:00:56.08 bitrate=8039.1kbits/s speed=80.9x    frame=1084554 fps=4850 q=-1.0 size=17755904kB time=05:01:32.78 bitrate=8039.5kbits/s speed=80.9x    frame=1086918 fps=4850 q=-1.0 size=17795584kB time=05:02:12.18 bitrate=8039.9kbits/s speed=80.9x    frame=1089317 fps=4850 q=-1.0 size=17835264kB time=05:02:52.16 bitrate=8040.1kbits/s speed=80.9x    frame=1091704 fps=4849 q=-1.0 size=17875200kB time=05:03:31.95 bitrate=8040.5kbits/s speed=80.9x    frame=1094155 fps=4849 q=-1.0 size=17916416kB time=05:04:12.79 bitrate=8041.0kbits/s speed=80.9x    frame=1096380 fps=4849 q=-1.0 size=17953280kB time=05:04:49.88 bitrate=8041.2kbits/s speed=80.9x    frame=1098757 fps=4848 q=-1.0 size=17992960kB time=05:05:29.49 bitrate=8041.6kbits/s speed=80.9x    frame=1101399 fps=4849 q=-1.0 size=18032896kB time=05:06:13.53 bitrate=8040.1kbits/s speed=80.9x    frame=1103720 fps=4849 q=-1.0 size=18071552kB time=05:06:52.22 bitrate=8040.4kbits/s speed=80.9x    frame=1106228 fps=4849 q=-1.0 size=18109696kB time=05:07:34.01 bitrate=8039.2kbits/s speed=80.9x    frame=1108674 fps=4849 q=-1.0 size=18150400kB time=05:08:14.78 bitrate=8039.5kbits/s speed=80.9x    frame=1110990 fps=4849 q=-1.0 size=18188800kB time=05:08:53.38 bitrate=8039.7kbits/s speed=80.9x    frame=1113327 fps=4848 q=-1.0 size=18227968kB time=05:09:32.33 bitrate=8040.1kbits/s speed=80.9x    frame=1115716 fps=4848 q=-1.0 size=18267904kB time=05:10:12.14 bitrate=8040.5kbits/s speed=80.9x    frame=1118015 fps=4848 q=-1.0 size=18306304kB time=05:10:50.46 bitrate=8040.8kbits/s speed=80.9x    frame=1120225 fps=4847 q=-1.0 size=18343424kB time=05:11:27.30 bitrate=8041.3kbits/s speed=80.9x    frame=1122631 fps=4847 q=-1.0 size=18383360kB time=05:12:07.39 bitrate=8041.5kbits/s speed=80.9x    frame=1124834 fps=4846 q=-1.0 size=18419968kB time=05:12:44.12 bitrate=8041.8kbits/s speed=80.8x    frame=1127188 fps=4845 q=-1.0 size=18459392kB time=05:13:23.34 bitrate=8042.2kbits/s speed=80.8x    frame=1129578 fps=4845 q=-1.0 size=18499072kB time=05:14:03.18 bitrate=8042.4kbits/s speed=80.8x    frame=1131866 fps=4845 q=-1.0 size=18537216kB time=05:14:41.32 bitrate=8042.7kbits/s speed=80.8x    frame=1134220 fps=4844 q=-1.0 size=18576384kB time=05:15:20.55 bitrate=8043.0kbits/s speed=80.8x    frame=1136710 fps=4845 q=-1.0 size=18617344kB time=05:16:02.05 bitrate=8043.1kbits/s speed=80.8x    frame=1139179 fps=4845 q=-1.0 size=18655488kB time=05:16:43.19 bitrate=8042.1kbits/s speed=80.8x    frame=1141424 fps=4844 q=-1.0 size=18689280kB time=05:17:20.62 bitrate=8040.8kbits/s speed=80.8x    frame=1143750 fps=4844 q=-1.0 size=18728192kB time=05:17:59.38 bitrate=8041.2kbits/s speed=80.8x    frame=1146095 fps=4843 q=-1.0 size=18767360kB time=05:18:38.46 bitrate=8041.6kbits/s speed=80.8x    frame=1148293 fps=4842 q=-1.0 size=18803968kB time=05:19:15.09 bitrate=8041.8kbits/s speed=80.8x    frame=1150727 fps=4842 q=-1.0 size=18844672kB time=05:19:55.67 bitrate=8042.2kbits/s speed=80.8x    frame=1153022 fps=4842 q=-1.0 size=18883072kB time=05:20:33.92 bitrate=8042.6kbits/s speed=80.8x    frame=1155422 fps=4842 q=-1.0 size=18922752kB time=05:21:13.92 bitrate=8042.7kbits/s speed=80.8x    frame=1157634 fps=4841 q=-1.0 size=18960128kB time=05:21:50.78 bitrate=8043.2kbits/s speed=80.8x    frame=1159990 fps=4841 q=-1.0 size=18999552kB time=05:22:30.04 bitrate=8043.6kbits/s speed=80.7x    frame=1162379 fps=4841 q=-1.0 size=19039232kB time=05:23:09.87 bitrate=8043.9kbits/s speed=80.7x    frame=1164628 fps=4840 q=-1.0 size=19076608kB time=05:23:47.34 bitrate=8044.1kbits/s speed=80.7x    frame=1167132 fps=4840 q=-1.0 size=19115008kB time=05:24:29.08 bitrate=8043.0kbits/s speed=80.7x    frame=1169588 fps=4840 q=-1.0 size=19155968kB time=05:25:10.02 bitrate=8043.3kbits/s speed=80.7x    frame=1172394 fps=4842 q=-1.0 size=19192320kB time=05:25:56.78 bitrate=8039.3kbits/s speed=80.8x    frame=1174742 fps=4842 q=-1.0 size=19231488kB time=05:26:35.91 bitrate=8039.7kbits/s speed=80.8x    frame=1177123 fps=4841 q=-1.0 size=19271168kB time=05:27:15.59 bitrate=8040.0kbits/s speed=80.8x    frame=1179409 fps=4841 q=-1.0 size=19309312kB time=05:27:53.69 bitrate=8040.3kbits/s speed=80.8x    frame=1181805 fps=4841 q=-1.0 size=19349248kB time=05:28:33.63 bitrate=8040.6kbits/s speed=80.7x    frame=1184131 fps=4840 q=-1.0 size=19388160kB time=05:29:12.39 bitrate=8040.9kbits/s speed=80.7x    frame=1186360 fps=4840 q=-1.0 size=19425280kB time=05:29:49.55 bitrate=8041.2kbits/s speed=80.7x    frame=1188796 fps=4840 q=-1.0 size=19465984kB time=05:30:30.14 bitrate=8041.6kbits/s speed=80.7x    frame=1191016 fps=4839 q=-1.0 size=19503104kB time=05:31:07.14 bitrate=8041.9kbits/s speed=80.7x    frame=1193429 fps=4839 q=-1.0 size=19543296kB time=05:31:47.37 bitrate=8042.2kbits/s speed=80.7x    frame=1195842 fps=4839 q=-1.0 size=19583744kB time=05:32:27.58 bitrate=8042.6kbits/s speed=80.7x    frame=1197989 fps=4838 q=-1.0 size=19619328kB time=05:33:03.36 bitrate=8042.8kbits/s speed=80.7x    frame=1200686 fps=4839 q=-1.0 size=19660544kB time=05:33:48.31 bitrate=8041.6kbits/s speed=80.7x    frame=1203417 fps=4840 q=-1.0 size=19702272kB time=05:34:33.83 bitrate=8040.4kbits/s speed=80.7x    frame=1205647 fps=4839 q=-1.0 size=19739648kB time=05:35:11.00 bitrate=8040.7kbits/s speed=80.7x    frame=1208136 fps=4840 q=-1.0 size=19780864kB time=05:35:52.49 bitrate=8040.9kbits/s speed=80.7x    frame=1210526 fps=4839 q=-1.0 size=19820800kB time=05:36:32.32 bitrate=8041.3kbits/s speed=80.7x    frame=1212993 fps=4840 q=-1.0 size=19862016kB time=05:37:13.43 bitrate=8041.6kbits/s speed=80.7x    frame=1215493 fps=4840 q=-1.0 size=19903744kB time=05:37:55.09 bitrate=8042.0kbits/s speed=80.7x    frame=1217875 fps=4840 q=-1.0 size=19943680kB time=05:38:34.79 bitrate=8042.3kbits/s speed=80.7x    frame=1220316 fps=4840 q=-1.0 size=19984128kB time=05:39:15.48 bitrate=8042.6kbits/s speed=80.7x    frame=1222849 fps=4840 q=-1.0 size=20023296kB time=05:39:57.70 bitrate=8041.6kbits/s speed=80.7x    frame=1225503 fps=4841 q=-1.0 size=20062720kB time=05:40:41.94 bitrate=8040.0kbits/s speed=80.8x    frame=1227489 fps=4839 q=-1.0 size=20095744kB time=05:41:15.03 bitrate=8040.2kbits/s speed=80.7x    frame=1229429 fps=4838 q=-1.0 size=20128256kB time=05:41:47.37 bitrate=8040.6kbits/s speed=80.7x    frame=1231936 fps=4838 q=-1.0 size=20169984kB time=05:42:29.14 bitrate=8040.8kbits/s speed=80.7x    frame=1234407 fps=4838 q=-1.0 size=20210944kB time=05:43:10.34 bitrate=8041.1kbits/s speed=80.7x    frame=1236614 fps=4837 q=-1.0 size=20248064kB time=05:43:47.11 bitrate=8041.5kbits/s speed=80.7x    frame=1239091 fps=4837 q=-1.0 size=20289280kB time=05:44:28.39 bitrate=8041.7kbits/s speed=80.7x    frame=1241486 fps=4837 q=-1.0 size=20329216kB time=05:45:08.31 bitrate=8042.0kbits/s speed=80.7x    frame=1243857 fps=4837 q=-1.0 size=20368896kB time=05:45:47.83 bitrate=8042.4kbits/s speed=80.7x    frame=1246391 fps=4838 q=-1.0 size=20411136kB time=05:46:30.06 bitrate=8042.7kbits/s speed=80.7x    frame=1248798 fps=4838 q=-1.0 size=20447744kB time=05:47:10.18 bitrate=8041.6kbits/s speed=80.7x    frame=1251608 fps=4839 q=-1.0 size=20490752kB time=05:47:57.01 bitrate=8040.4kbits/s speed=80.7x    frame=1254017 fps=4839 q=-1.0 size=20530944kB time=05:48:37.16 bitrate=8040.7kbits/s speed=80.7x    frame=1256223 fps=4838 q=-1.0 size=20567808kB time=05:49:13.94 bitrate=8041.0kbits/s speed=80.7x    frame=1258662 fps=4838 q=-1.0 size=20608512kB time=05:49:54.58 bitrate=8041.4kbits/s speed=80.7x    frame=1261114 fps=4838 q=-1.0 size=20649216kB time=05:50:35.46 bitrate=8041.6kbits/s speed=80.7x    frame=1263655 fps=4839 q=-1.0 size=20691712kB time=05:51:17.80 bitrate=8041.9kbits/s speed=80.7x    frame=1265856 fps=4838 q=-1.0 size=20728576kB time=05:51:54.48 bitrate=8042.3kbits/s speed=80.7x    frame=1268381 fps=4838 q=-1.0 size=20770816kB time=05:52:36.56 bitrate=8042.6kbits/s speed=80.7x    frame=1270838 fps=4839 q=-1.0 size=20811776kB time=05:53:17.51 bitrate=8042.9kbits/s speed=80.7x    frame=1273210 fps=4838 q=-1.0 size=20851456kB time=05:53:57.06 bitrate=8043.3kbits/s speed=80.7x    frame=1275800 fps=4839 q=-1.0 size=20894464kB time=05:54:40.21 bitrate=8043.5kbits/s speed=80.7x    frame=1278079 fps=4839 q=-1.0 size=20932352kB time=05:55:18.21 bitrate=8043.7kbits/s speed=80.7x    frame=1280534 fps=4839 q=-1.0 size=20973568kB time=05:55:59.11 bitrate=8044.1kbits/s speed=80.7x    frame=1283341 fps=4840 q=-1.0 size=21016064kB time=05:56:45.89 bitrate=8042.8kbits/s speed=80.7x    frame=1285590 fps=4839 q=-1.0 size=21053440kB time=05:57:23.38 bitrate=8043.0kbits/s speed=80.7x    frame=1288348 fps=4841 q=-1.0 size=21095168kB time=05:58:09.34 bitrate=8041.7kbits/s speed=80.7x    frame=1290821 fps=4841 q=-1.0 size=21136640kB time=05:58:50.56 bitrate=8042.1kbits/s speed=80.7x    frame=1293038 fps=4840 q=-1.0 size=21173504kB time=05:59:27.51 bitrate=8042.3kbits/s speed=80.7x    frame=1295584 fps=4841 q=-1.0 size=21216256kB time=06:00:09.94 bitrate=8042.8kbits/s speed=80.7x    frame=1297937 fps=4840 q=-1.0 size=21255168kB time=06:00:49.17 bitrate=8042.9kbits/s speed=80.7x    frame=1300289 fps=4840 q=-1.0 size=21294592kB time=06:01:28.36 bitrate=8043.3kbits/s speed=80.7x    frame=1302629 fps=4840 q=-1.0 size=21333504kB time=06:02:07.36 bitrate=8043.5kbits/s speed=80.7x    frame=1304970 fps=4839 q=-1.0 size=21372928kB time=06:02:46.38 bitrate=8043.9kbits/s speed=80.7x    frame=1307475 fps=4840 q=-1.0 size=21414400kB time=06:03:28.13 bitrate=8044.1kbits/s speed=80.7x    frame=1310040 fps=4840 q=-1.0 size=21457152kB time=06:04:10.88 bitrate=8044.4kbits/s speed=80.7x    frame=1312287 fps=4840 q=-1.0 size=21494784kB time=06:04:48.34 bitrate=8044.7kbits/s speed=80.7x    frame=1314860 fps=4840 q=-1.0 size=21537792kB time=06:05:31.21 bitrate=8045.0kbits/s speed=80.7x    frame=1317325 fps=4840 q=-1.0 size=21578752kB time=06:06:12.29 bitrate=8045.3kbits/s speed=80.7x    frame=1320041 fps=4841 q=-1.0 size=21619968kB time=06:06:57.56 bitrate=8044.1kbits/s speed=80.8x    frame=1322622 fps=4842 q=-1.0 size=21662464kB time=06:07:40.59 bitrate=8044.2kbits/s speed=80.8x    frame=1325114 fps=4842 q=-1.0 size=21699840kB time=06:08:22.11 bitrate=8042.9kbits/s speed=80.8x    frame=1327624 fps=4843 q=-1.0 size=21741568kB time=06:09:03.96 bitrate=8043.1kbits/s speed=80.8x    frame=1330178 fps=4843 q=-1.0 size=21784576kB time=06:09:46.52 bitrate=8043.6kbits/s speed=80.8x    frame=1332413 fps=4842 q=-1.0 size=21821696kB time=06:10:23.76 bitrate=8043.8kbits/s speed=80.8x    frame=1334879 fps=4843 q=-1.0 size=21862656kB time=06:11:04.87 bitrate=8044.0kbits/s speed=80.8x    frame=1337396 fps=4843 q=-1.0 size=21904640kB time=06:11:46.81 bitrate=8044.3kbits/s speed=80.8x    frame=1339862 fps=4843 q=-1.0 size=21946112kB time=06:12:27.91 bitrate=8044.7kbits/s speed=80.8x    frame=1342401 fps=4844 q=-1.0 size=21988352kB time=06:13:10.23 bitrate=8045.0kbits/s speed=80.8x    frame=1344738 fps=4843 q=-1.0 size=22027520kB time=06:13:49.18 bitrate=8045.3kbits/s speed=80.8x    frame=1347120 fps=4843 q=-1.0 size=22067200kB time=06:14:28.88 bitrate=8045.5kbits/s speed=80.8x    frame=1349656 fps=4843 q=-1.0 size=22109184kB time=06:15:11.15 bitrate=8045.7kbits/s speed=80.8x    frame=1351863 fps=4843 q=-1.0 size=22146304kB time=06:15:47.93 bitrate=8046.1kbits/s speed=80.8x    frame=1354314 fps=4843 q=-1.0 size=22187008kB time=06:16:28.78 bitrate=8046.3kbits/s speed=80.8x    frame=1356769 fps=4843 q=-1.0 size=22227968kB time=06:17:09.70 bitrate=8046.6kbits/s speed=80.8x    frame=1359232 fps=4843 q=-1.0 size=22265088kB time=06:17:50.74 bitrate=8045.4kbits/s speed=80.8x    frame=1361886 fps=4844 q=-1.0 size=22305024kB time=06:18:34.99 bitrate=8044.1kbits/s speed=80.8x    frame=1364311 fps=4844 q=-1.0 size=22345472kB time=06:19:15.39 bitrate=8044.4kbits/s speed=80.8x    frame=1366604 fps=4843 q=-1.0 size=22383616kB time=06:19:53.62 bitrate=8044.6kbits/s speed=80.8x    frame=1369061 fps=4844 q=-1.0 size=22424832kB time=06:20:34.56 bitrate=8045.0kbits/s speed=80.8x    frame=1371404 fps=4843 q=-1.0 size=22464000kB time=06:21:13.61 bitrate=8045.3kbits/s speed=80.8x    frame=1373736 fps=4843 q=-1.0 size=22502656kB time=06:21:52.49 bitrate=8045.5kbits/s speed=80.8x    frame=1376055 fps=4843 q=-1.0 size=22541312kB time=06:22:31.13 bitrate=8045.7kbits/s speed=80.8x    frame=1378469 fps=4843 q=-1.0 size=22581504kB time=06:23:11.36 bitrate=8046.0kbits/s speed=80.8x    frame=1380878 fps=4843 q=-1.0 size=22621952kB time=06:23:51.51 bitrate=8046.3kbits/s speed=80.8x    frame=1383333 fps=4843 q=-1.0 size=22662912kB time=06:24:32.43 bitrate=8046.6kbits/s speed=80.8x    frame=1385620 fps=4842 q=-1.0 size=22700800kB time=06:25:10.54 bitrate=8046.8kbits/s speed=80.8x    frame=1388432 fps=4843 q=-1.0 size=22741248kB time=06:25:57.41 bitrate=8044.8kbits/s speed=80.8x    frame=1390776 fps=4843 q=-1.0 size=22780416kB time=06:26:36.48 bitrate=8045.1kbits/s speed=80.8x    frame=1391469 fps=4843 q=-1.0 Lsize=22792017kB time=06:26:48.03 bitrate=8045.2kbits/s speed=80.8x    
video:22196961kB audio:548453kB subtitle:0kB other streams:0kB global headers:0kB muxing overhead: 0.204888%
